<svg xmlns="http://www.w3.org/2000/svg" width="14" height="14" viewBox="198.4 391.3 14 14">
  <path d="M210.3 396.5c-1 0-1.8 0.7-2 1.6h-2.2v-2.9c0-1.1-0.9-2-2-2h-1.9v-0.5c0-0.5-0.4-0.9-0.9-0.9h-1.9c-0.5 0-0.9 0.4-0.9 0.9v1.9c0 0.5 0.4 0.9 0.9 0.9h1.9c0.5 0 0.9-0.4 0.9-0.9v-0.5h1.9c0.5 0 1 0.4 1 1v6.2c0 0.5-0.4 1-1 1h-1.9v-0.5c0-0.5-0.4-0.9-0.9-0.9h-1.9c-0.5 0-0.9 0.4-0.9 0.9v1.9c0 0.5 0.4 0.9 0.9 0.9h1.9c0.5 0 0.9-0.4 0.9-0.9v-0.5h1.9c1.1 0 2-0.9 2-2v-2.4h2.2c0.2 0.9 1 1.6 2 1.6 1.2 0 2.1-0.9 2.1-2.1C212.4 397.4 211.5 396.5 210.3 396.5z"/>
</svg>