<svg xmlns="http://www.w3.org/2000/svg" viewBox="0 0 200 200">
  <path d="M92.1 100.5V65.3c0-5.4 5.8-8.9 10.6-6.3l33.1 17.9 32 17.3c5 2.7 5 9.9 0 12.7l-32 17.3 -33.1 17.9c-4.8 2.6-10.6-0.9-10.6-6.3V100.5z"/>
  <path d="M64.5 192.8L64.5 192.8c-4 0-7.2-3.2-7.2-7.2V14.2C57.3 10.2 60.5 7 64.5 7h0c4 0 7.2 3.2 7.2 7.2v171.4C71.7 189.6 68.5 192.8 64.5 192.8z"/>
  <path d="M31.2 192.8L31.2 192.8c-4 0-7.2-3.2-7.2-7.2V14.2c0-4 3.2-7.2 7.2-7.2h0c4 0 7.2 3.2 7.2 7.2v171.4C38.3 189.6 35.1 192.8 31.2 192.8z"/>
</svg>