<svg xmlns="http://www.w3.org/2000/svg" width="14" height="14" viewBox="198.4 391.3 14 14">
  <path d="M201.7 404.8h-2c-0.4 0-0.8-0.3-0.8-0.8v-7.9h3.5v7.9C202.4 404.5 202.1 404.8 201.7 404.8z"/>
  <path d="M211.9 392.6v2c0 0.4-0.3 0.8-0.8 0.8h-7.9v-3.5h7.9C211.5 391.8 211.9 392.2 211.9 392.6z"/>
  <path d="M202.4 395.3h-3.5v-2.8c0-0.4 0.3-0.8 0.8-0.8h2.8V395.3z"/>
  <path d="M205.8 399.7h-1.1c-0.6 0-1-0.5-1-1v-1.1c0-0.6 0.5-1 1-1h1.1c0.6 0 1 0.5 1 1v1.1C206.8 399.3 206.4 399.7 205.8 399.7z"/>
  <path d="M209.6 399.7h-1.1c-0.6 0-1-0.5-1-1v-1.1c0-0.6 0.5-1 1-1h1.1c0.6 0 1 0.5 1 1v1.1C210.6 399.3 210.2 399.7 209.6 399.7z"/>
  <path d="M205.8 403.6h-1.1c-0.6 0-1-0.5-1-1v-1.1c0-0.6 0.5-1 1-1h1.1c0.6 0 1 0.5 1 1v1.1C206.8 403.1 206.4 403.6 205.8 403.6z"/>
  <path d="M209.6 403.6h-1.1c-0.6 0-1-0.5-1-1v-1.1c0-0.6 0.5-1 1-1h1.1c0.6 0 1 0.5 1 1v1.1C210.6 403.1 210.2 403.6 209.6 403.6z"/>
</svg>