<svg xmlns="http://www.w3.org/2000/svg" viewBox="0 0 200 200">
    <path d="M40.3 22.8c4.5-5.8 11.3-8.7 20.3-8.7 9 0 15.8 2.9 20.2 8.7 4.5 5.8 6.7 15.3 6.7 28.6s-2.3 22.7-6.8 28.2c-4.5 5.5-11.3 8.3-20.2 8.3s-15.7-2.7-20.2-8.2c-4.5-5.5-6.8-14.9-6.8-28.2C33.6 38.2 35.8 28.6 40.3 22.8zM71.8 30.5c-2.2-3.9-6-5.9-11.1-5.9 -5.2 0-8.9 2-11.2 5.9 -2.3 3.9-3.4 10.8-3.4 20.7 0 9.9 1.2 16.7 3.5 20.5 2.3 3.8 6.1 5.7 11.1 5.7s8.8-1.9 11-5.7c2.3-3.8 3.4-10.6 3.4-20.5C75.1 41.3 74 34.4 71.8 30.5z"/>
    <path d="M74.2 116v71.4H62.1v-57.8l-16.8 10.8 -5.5-9 23.3-15.5H74.2z"/>
  <path d="M173.3 135.6c-0.2-1.6-1.1-2.9-2.4-3.7 -0.8-0.5-1.7-0.7-2.6-0.7 -1.7 0-3.4 0.9-4.3 2.4l-17.2 29.2V19.5c0-2.6-1.9-4.9-4.5-5.2 -3-0.3-5.5 2.1-5.5 5v143.6l-17.2-28.6c-0.9-1.5-2.5-2.4-4.3-2.4 -0.9 0-1.8 0.2-2.6 0.7 -1.3 0.8-2.2 2.1-2.4 3.7 -0.1 1.2 0.2 2.3 0.8 3.3l23.5 39.2c3.1 5.2 10.7 5.2 13.8 0l23.9-39.9C173.1 137.9 173.4 136.7 173.3 135.6z"/>
</svg>