<svg xmlns="http://www.w3.org/2000/svg" viewBox="0 0 200 200"><path d="M79.8 38.6v29.8c0.1 1.9 0.6 3.3 1.5 4.3s2.3 1.5 4.3 1.8l-0.4 10.9c-7.5 0-13.3-1.6-17.4-4.8 -7 3.2-14 4.8-21.1 4.8 -13 0-19.5-6.9-19.5-20.8 0-6.6 1.8-11.4 5.3-14.4 3.5-3 9-4.8 16.3-5.4l16.9-1.4v-4.7c0-3.5-0.8-5.9-2.3-7.3 -1.5-1.4-3.8-2.1-6.7-2.1 -5.6 0-12.6 0.4-20.9 1l-4.2 0.3 -0.5-10.1c9.5-2.3 18.3-3.4 26.2-3.4s13.7 1.7 17.3 5.2C78.1 25.6 79.8 31.1 79.8 38.6zM50.5 54.8c-6 0.5-9 3.8-9 9.8s2.7 9 8 9c4.4 0 9-0.7 13.9-2.1l2.4-0.8V53.4L50.5 54.8z"/><path d="M31.6 127.9v-12.7h48.5v12.7l-31.4 40h31.4v12.7H31.6v-12.7l31.5-40H31.6z"/><path d="M173.3 135.6c-0.2-1.6-1.1-2.9-2.4-3.7 -0.8-0.5-1.7-0.7-2.6-0.7 -1.7 0-3.4 0.9-4.3 2.4l-17.2 29.2V19.5c0-2.6-1.9-4.9-4.5-5.2 -3-0.3-5.5 2.1-5.5 5v143.6l-17.2-28.6c-0.9-1.5-2.5-2.4-4.3-2.4 -0.9 0-1.8 0.2-2.6 0.7 -1.3 0.8-2.2 2.1-2.4 3.7 -0.1 1.2 0.2 2.3 0.8 3.3l23.5 39.2c3.1 5.2 10.7 5.2 13.8 0l23.9-39.9C173.1 137.9 173.4 136.7 173.3 135.6z"/></svg>