<svg xmlns="http://www.w3.org/2000/svg" viewBox="0 0 200 200">
    <path d="M140.2 23.3H25.1c-7 0-12.8 5.7-12.8 12.8v14.1c0 5.4 2.1 10.4 5.9 14.2l42.6 42.5c1.7 1.7 2.7 4.1 2.7 6.5v57.9c0 2.1 1.2 4.1 3.2 5 0.7 0.3 1.5 0.5 2.3 0.5 1.3 0 2.6-0.5 3.6-1.3l20.5-17.5c4.5-3.8 7-9.4 7-15.2v-29.1c0-2.5 1-4.9 2.8-6.6l44-42.5c3.9-3.8 6.1-9 6.1-14.5V36.1C153 29 147.2 23.3 140.2 23.3L140.2 23.3zM140.2 23.3"/>
    <path d="M173.2 176.7h-44.1c-8 0-14.4-6.5-14.4-14.4v-36.8c0-8 6.5-14.4 14.4-14.4h44.1c8 0 14.4 6.5 14.4 14.4v36.8C187.6 170.2 181.2 176.7 173.2 176.7zM150.2 161.1v-34.6c0-5.2-4.3-9.5-9.5-9.5h-9.9c-5.2 0-9.5 4.3-9.5 9.5v34.6c0 5.2 4.3 9.5 9.5 9.5h9.9C146 170.6 150.2 166.4 150.2 161.1z"/>
</svg>